<svg xmlns="http://www.w3.org/2000/svg" viewBox="0 0 512 512" role="img" aria-label="FocusForge forged sword and anvil emblem"><defs><radialGradient id="bg" cx="50%" cy="48%" r="55%"><stop offset="0" stop-color="#3a1b0b"/><stop offset=".62" stop-color="#120704"/><stop offset="1" stop-color="#050201"/></radialGradient><linearGradient id="steel" x1="0" x2="1"><stop offset="0" stop-color="#0a0908"/><stop offset=".22" stop-color="#3d3a34"/><stop offset=".5" stop-color="#fff1cc"/><stop offset=".72" stop-color="#5a5348"/><stop offset="1" stop-color="#050201"/></linearGradient><linearGradient id="gold" x1="0" x2="1"><stop offset="0" stop-color="#5b3108"/><stop offset=".45" stop-color="#ffd46f"/><stop offset="1" stop-color="#8a4a0c"/></linearGradient><filter id="glow"><feGaussianBlur stdDeviation="3" result="b"/><feMerge><feMergeNode in="b"/><feMergeNode in="SourceGraphic"/></feMerge></filter></defs><circle cx="256" cy="256" r="239" fill="#050201"/><circle cx="256" cy="256" r="226" fill="url(#bg)" stroke="#30261d" stroke-width="17"/><circle cx="256" cy="256" r="204" fill="none" stroke="#ff5a0a" stroke-width="4" filter="url(#glow)"/><circle cx="256" cy="256" r="167" fill="none" stroke="#ff5a0a" stroke-width="2" opacity=".72"/><circle cx="256" cy="256" r="127" fill="none" stroke="#ffd46f" stroke-width="1.3" opacity=".32"/><g stroke="#ff5a0a" stroke-width="5" stroke-linecap="round" opacity=".85" filter="url(#glow)"><path d="M137 178l18 12m202-12l18 12M116 278l16-10m248 10l16-10M177 112l12 23m146-23l-12 23M161 361l20-19m170 19l-20-19"/><path d="M99 256h32m250 0h32"/></g><g fill="none" stroke="#ffd46f" stroke-width="3" opacity=".78"><path d="M126 139l12-12 12 12-12 12zM374 139l12-12 12 12-12 12zM126 373l12-12 12 12-12 12zM374 373l12-12 12 12-12 12z"/></g><g><path d="M74 258l37-37h46l-24 34 24 34h-46zM438 258l-37-37h-46l24 34-24 34h46z" fill="url(#steel)" stroke="#ffd46f" stroke-width="5"/><path d="M150 219h212v44H150zM165 263h182v38H165zM148 301h216v42H148z" fill="url(#steel)" stroke="#120704" stroke-width="7" opacity=".96"/></g><g><path d="M256 30l27 34-27 34-27-34zM31 256l34-27 34 27-34 27zM481 256l-34-27-34 27 34 27z" fill="url(#gold)" stroke="#2b1c0a" stroke-width="5"/><path d="M256 48l13 16-13 16-13-16zM49 256l16-13 16 13-16 13zM463 256l-16-13-16 13 16 13z" fill="#fff2a8"/><path d="M256 54l8 10-8 10-8-10zM55 256l10-8 10 8-10 8zM457 256l-10-8-10 8 10 8z" fill="#ff7819" filter="url(#glow)"/></g><g><path d="M256 70c18 27 22 48 8 76h-16c-14-28-10-49 8-76z" fill="url(#gold)" stroke="#120704" stroke-width="5"/><rect x="242" y="88" width="28" height="124" rx="9" fill="#1b120b" stroke="#8b7658" stroke-width="4"/><path d="M191 170c46 24 84 24 130 0l29 25-29 25c-46-25-84-25-130 0l-29-25z" fill="url(#gold)" stroke="#120704" stroke-width="6"/><path d="M256 178l20 20-20 20-20-20z" fill="#fff2a8"/><path d="M256 185l13 13-13 13-13-13z" fill="#ff7819" filter="url(#glow)"/><path d="M229 207h54l-15 247-12 28-12-28z" fill="url(#steel)" stroke="#ffd46f" stroke-width="5"/><path d="M256 211v247" stroke="#fff1cc" stroke-width="3" opacity=".8"/><path d="M239 221c8 76 7 150 0 220M273 221c-8 76-7 150 0 220" fill="none" stroke="#ff5a0a" stroke-width="3" opacity=".78" filter="url(#glow)"/></g></svg>