<svg xmlns="http://www.w3.org/2000/svg" viewBox="0 0 1600 2400" role="img" aria-label="Quiet crimson starforge scene with space and star elements held to the page edges">
  <defs>
    <linearGradient id="nebulaLeft" x1="0" x2="1" y1="0" y2="0">
      <stop offset="0" stop-color="#f04438" stop-opacity="0.48"/>
      <stop offset="0.5" stop-color="#8e0c17" stop-opacity="0.26"/>
      <stop offset="1" stop-color="#000" stop-opacity="0"/>
    </linearGradient>
    <linearGradient id="nebulaRight" x1="1" x2="0" y1="0" y2="0">
      <stop offset="0" stop-color="#ffb067" stop-opacity="0.38"/>
      <stop offset="0.48" stop-color="#8e0c17" stop-opacity="0.25"/>
      <stop offset="1" stop-color="#000" stop-opacity="0"/>
    </linearGradient>
    <linearGradient id="redMetal" x1="0" x2="1" y1="0" y2="1">
      <stop offset="0" stop-color="#35241f"/>
      <stop offset="0.4" stop-color="#090707"/>
      <stop offset="1" stop-color="#3a080d"/>
    </linearGradient>
    <linearGradient id="starFire" x1="0" x2="1" y1="0" y2="1">
      <stop offset="0" stop-color="#fff2c5"/>
      <stop offset="0.34" stop-color="#ffb067"/>
      <stop offset="1" stop-color="#f04438"/>
    </linearGradient>
    <filter id="redGlow" x="-25%" y="-25%" width="150%" height="150%">
      <feGaussianBlur stdDeviation="7" result="blur"/>
      <feColorMatrix in="blur" type="matrix" values="1.45 0 0 0 0.28 0 0.22 0 0 0.02 0 0 0.18 0 0.02 0 0 0 0.58 0" result="glow"/>
      <feMerge><feMergeNode in="glow"/><feMergeNode in="SourceGraphic"/></feMerge>
    </filter>
  </defs>
  <rect width="1600" height="2400" fill="transparent"/>
  <path d="M0 0h620v2400H0z" fill="url(#nebulaLeft)" opacity="0.74"/>
  <path d="M1600 0H980v2400h620z" fill="url(#nebulaRight)" opacity="0.72"/>
  <g opacity="0.84">
    <path d="M88 2400V210c0-92 72-166 162-166h118v2356z" fill="url(#redMetal)"/>
    <path d="M1232 2400V44h118c90 0 162 74 162 166v2190z" fill="url(#redMetal)"/>
    <path d="M150 202h188l-34 72H184z" fill="#12090a" opacity="0.86"/>
    <path d="M1262 202h188l-34 72h-120z" fill="#12090a" opacity="0.86"/>
    <path d="M168 822h150l-30 66h-94z" fill="#12090a" opacity="0.72"/>
    <path d="M1280 822h150l-30 66h-94z" fill="#12090a" opacity="0.72"/>
  </g>
  <g filter="url(#redGlow)" opacity="0.86" fill="url(#starFire)">
    <path d="M280 458l18 48 48 18-48 18-18 48-18-48-48-18 48-18z"/>
    <path d="M1356 420l20 54 54 20-54 20-20 54-20-54-54-20 54-20z"/>
    <path d="M420 1120l14 38 38 14-38 14-14 38-14-38-38-14 38-14z"/>
    <path d="M1204 1244l14 38 38 14-38 14-14 38-14-38-38-14 38-14z"/>
    <path d="M268 1772l16 42 42 16-42 16-16 42-16-42-42-16 42-16z"/>
    <path d="M1376 1840l16 42 42 16-42 16-16 42-16-42-42-16 42-16z"/>
  </g>
  <g filter="url(#redGlow)" opacity="0.58" fill="none" stroke-linecap="round">
    <path d="M0 716c168-92 306-72 414 60 92 112 210 128 354 48" stroke="#f04438" stroke-width="28"/>
    <path d="M1600 964c-172-82-316-56-432 78-96 112-222 124-378 38" stroke="#ffb067" stroke-width="24"/>
  </g>
  <g opacity="0.66">
    <path d="M0 2228c268-82 500-76 696 18 72 34 142 52 210 54 192 6 424-56 694-188v288H0z" fill="#210307"/>
    <path d="M0 2264c308 36 584 34 828-8 252-44 510-40 772 12v132H0z" fill="#060303" opacity="0.72"/>
  </g>
</svg>
