<svg xmlns="http://www.w3.org/2000/svg" viewBox="0 0 1600 2400" role="img" aria-label="Dawn bloom scene with cherry blossoms, sunrise, lake, path, petals, and warm mountains">
  <defs>
    <linearGradient id="dawnSky" x1="0" x2="0" y1="0" y2="1">
      <stop offset="0" stop-color="#6f4aa1" stop-opacity="0.62"/>
      <stop offset="0.42" stop-color="#ff86a8" stop-opacity="0.46"/>
      <stop offset="0.68" stop-color="#ffd089" stop-opacity="0.28"/>
      <stop offset="1" stop-color="#120812" stop-opacity="0"/>
    </linearGradient>
    <radialGradient id="sun" cx="74%" cy="34%" r="26%">
      <stop offset="0" stop-color="#fff4c6" stop-opacity="0.9"/>
      <stop offset="0.22" stop-color="#ffd89a" stop-opacity="0.56"/>
      <stop offset="0.68" stop-color="#ff83a5" stop-opacity="0.18"/>
      <stop offset="1" stop-color="#000" stop-opacity="0"/>
    </radialGradient>
    <linearGradient id="petal" x1="0" x2="1" y1="0" y2="1">
      <stop offset="0" stop-color="#ffe3ec"/>
      <stop offset="0.46" stop-color="#ff8fb2"/>
      <stop offset="1" stop-color="#b45395"/>
    </linearGradient>
    <linearGradient id="wood" x1="0" x2="1" y1="0" y2="1">
      <stop offset="0" stop-color="#a35b54"/>
      <stop offset="0.5" stop-color="#51303b"/>
      <stop offset="1" stop-color="#201222"/>
    </linearGradient>
    <filter id="softBloom" x="-30%" y="-30%" width="160%" height="160%">
      <feGaussianBlur stdDeviation="4" result="blur"/>
      <feColorMatrix in="blur" type="matrix" values="1.4 0 0 0 0.18 0 0.65 0 0 0.08 0 0 1.2 0 0.22 0 0 0 0.58 0" result="glow"/>
      <feMerge><feMergeNode in="glow"/><feMergeNode in="SourceGraphic"/></feMerge>
    </filter>
    <g id="flower">
      <ellipse cx="0" cy="-12" rx="8" ry="17" fill="url(#petal)"/>
      <ellipse cx="12" cy="0" rx="8" ry="17" fill="url(#petal)" transform="rotate(72)"/>
      <ellipse cx="8" cy="12" rx="8" ry="17" fill="url(#petal)" transform="rotate(144)"/>
      <ellipse cx="-8" cy="12" rx="8" ry="17" fill="url(#petal)" transform="rotate(216)"/>
      <ellipse cx="-12" cy="0" rx="8" ry="17" fill="url(#petal)" transform="rotate(288)"/>
      <circle r="4" fill="#ffd89a"/>
    </g>
  </defs>
  <rect width="1600" height="2400" fill="url(#dawnSky)"/>
  <rect width="1600" height="2400" fill="url(#sun)"/>

  <g opacity="0.52" fill="#482a58">
    <path d="M0 980l210-180 172 148 210-250 234 294 172-176 228 226 164-128 210 178v246H0z"/>
    <path d="M0 1098l268-118 208 88 232-142 300 172 232-112 360 160v222H0z" opacity="0.62"/>
  </g>

  <g opacity="0.78">
    <path d="M0 1460c330-156 640-180 934-72 228 84 448 74 666-28v1040H0z" fill="#29172e" opacity="0.58"/>
    <path d="M0 1540c356-108 672-104 948 12 232 98 448 96 652-10v858H0z" fill="#432244" opacity="0.34"/>
    <path d="M0 1640c424 68 782 68 1074 0 184-42 358-58 526-32" fill="none" stroke="#ffd89a" stroke-opacity="0.34" stroke-width="8"/>
    <path d="M124 1798c382 52 730 42 1044-30" fill="none" stroke="#ff8fb2" stroke-opacity="0.24" stroke-width="6"/>
  </g>

  <g opacity="0.95">
    <path d="M0 138c180 402 270 774 270 1116 0 242-52 512-154 810L0 2140z" fill="#1f1222"/>
    <path d="M28 236c286 104 546 78 780-78" fill="none" stroke="#2a1824" stroke-width="42" stroke-linecap="round"/>
    <path d="M70 442c280 64 502 42 666-64" fill="none" stroke="#362033" stroke-width="22" stroke-linecap="round"/>
    <path d="M110 666c242 34 446 14 612-58" fill="none" stroke="#3c253a" stroke-width="16" stroke-linecap="round"/>
  </g>

  <g filter="url(#softBloom)" opacity="0.96">
    <use href="#flower" x="254" y="214" transform="scale(1.25)"/>
    <use href="#flower" x="366" y="272" transform="scale(0.9) rotate(14 366 272)"/>
    <use href="#flower" x="504" y="222" transform="scale(1.1) rotate(-12 504 222)"/>
    <use href="#flower" x="658" y="186" transform="scale(0.86)"/>
    <use href="#flower" x="206" y="410" transform="scale(0.9)"/>
    <use href="#flower" x="444" y="438" transform="scale(1.16)"/>
    <use href="#flower" x="612" y="394" transform="scale(0.82)"/>
    <use href="#flower" x="132" y="684" transform="scale(1.05)"/>
    <use href="#flower" x="324" y="722" transform="scale(0.74)"/>
  </g>

  <g opacity="0.75">
    <path d="M282 1518c154 208 232 500 236 882H220c38-338 76-596 62-882z" fill="url(#wood)"/>
    <path d="M258 1510h624" stroke="#8e5456" stroke-width="32" stroke-linecap="round"/>
    <path d="M310 1626h616" stroke="#6f3e4d" stroke-width="18" stroke-linecap="round"/>
    <path d="M340 1470c270-20 506-82 708-186" stroke="#8e5456" stroke-width="18" stroke-linecap="round" opacity="0.6"/>
  </g>

  <g filter="url(#softBloom)" opacity="0.72" fill="url(#petal)">
    <ellipse cx="1030" cy="680" rx="7" ry="16" transform="rotate(52 1030 680)"/>
    <ellipse cx="1130" cy="822" rx="6" ry="14" transform="rotate(28 1130 822)"/>
    <ellipse cx="848" cy="940" rx="6" ry="13" transform="rotate(72 848 940)"/>
    <ellipse cx="1230" cy="1130" rx="7" ry="15" transform="rotate(42 1230 1130)"/>
    <ellipse cx="612" cy="1260" rx="6" ry="13" transform="rotate(-22 612 1260)"/>
    <ellipse cx="980" cy="1510" rx="7" ry="16" transform="rotate(58 980 1510)"/>
    <ellipse cx="742" cy="1780" rx="6" ry="14" transform="rotate(16 742 1780)"/>
  </g>
</svg>
