<svg xmlns="http://www.w3.org/2000/svg" viewBox="0 0 1600 2400" role="img" aria-label="Glacial citadel scene with ice spires, aurora, snow, and crystalline architecture">
  <defs>
    <linearGradient id="sky" x1="0" x2="0" y1="0" y2="1">
      <stop offset="0" stop-color="#0b315f" stop-opacity="0.75"/>
      <stop offset="0.42" stop-color="#3e88d6" stop-opacity="0.35"/>
      <stop offset="1" stop-color="#07111e" stop-opacity="0"/>
    </linearGradient>
    <linearGradient id="ice" x1="0" x2="1" y1="0" y2="1">
      <stop offset="0" stop-color="#f2fbff" stop-opacity="0.9"/>
      <stop offset="0.34" stop-color="#9bd8ff" stop-opacity="0.82"/>
      <stop offset="0.68" stop-color="#3d80c9" stop-opacity="0.72"/>
      <stop offset="1" stop-color="#102f5a" stop-opacity="0.8"/>
    </linearGradient>
    <linearGradient id="aurora" x1="0" x2="1" y1="0" y2="0">
      <stop offset="0" stop-color="#7dfff0" stop-opacity="0"/>
      <stop offset="0.22" stop-color="#86fff0" stop-opacity="0.58"/>
      <stop offset="0.44" stop-color="#ccfbff" stop-opacity="0.28"/>
      <stop offset="0.72" stop-color="#6ebaff" stop-opacity="0.48"/>
      <stop offset="1" stop-color="#7dfff0" stop-opacity="0"/>
    </linearGradient>
    <filter id="frostGlow" x="-30%" y="-30%" width="160%" height="160%">
      <feGaussianBlur stdDeviation="5" result="blur"/>
      <feColorMatrix in="blur" type="matrix" values="0.55 0 0 0 0.1 0 1.3 0 0 0.22 0 0 1.8 0 0.45 0 0 0 0.68 0" result="glow"/>
      <feMerge><feMergeNode in="glow"/><feMergeNode in="SourceGraphic"/></feMerge>
    </filter>
    <pattern id="snow" width="130" height="130" patternUnits="userSpaceOnUse">
      <circle cx="18" cy="22" r="2.2" fill="#effbff" opacity="0.5"/>
      <circle cx="82" cy="50" r="1.6" fill="#bfeaff" opacity="0.42"/>
      <circle cx="112" cy="99" r="2.8" fill="#f8fdff" opacity="0.38"/>
      <circle cx="38" cy="110" r="1.8" fill="#e2f6ff" opacity="0.48"/>
    </pattern>
  </defs>
  <rect width="1600" height="2400" fill="url(#sky)"/>
  <rect width="1600" height="2400" fill="url(#snow)" opacity="0.72"/>
  <g filter="url(#frostGlow)" opacity="0.9">
    <path d="M-180 332C94 90 212 610 458 248c185-272 368-162 506 56 180 284 282-72 476 76 162 124 222 346 342 164" fill="none" stroke="url(#aurora)" stroke-width="70" stroke-linecap="round" opacity="0.72"/>
    <path d="M-120 210c250 140 360 22 520 72 214 68 290 272 520 118 172-116 300-72 514 36" fill="none" stroke="url(#aurora)" stroke-width="38" stroke-linecap="round" opacity="0.42"/>
  </g>

  <g opacity="0.92">
    <path d="M1110 2380V590l138-328 136 328v1790z" fill="#0c2d55" opacity="0.42"/>
    <path d="M1055 2380V740l94-216 96 216v1640z" fill="url(#ice)" opacity="0.72" stroke="#c8f2ff" stroke-opacity="0.36" stroke-width="5"/>
    <path d="M1268 2380V830l72-170 72 170v1550z" fill="url(#ice)" opacity="0.58" stroke="#dff8ff" stroke-opacity="0.28" stroke-width="4"/>
    <path d="M890 2380V980l74-190 72 190v1400z" fill="url(#ice)" opacity="0.54" stroke="#dff8ff" stroke-opacity="0.24" stroke-width="4"/>
  </g>

  <g fill="url(#ice)" stroke="#e9fbff" stroke-opacity="0.42" stroke-width="4" opacity="0.76">
    <path d="M210 2380V1070l86-264 82 264v1310z"/>
    <path d="M382 2380V1270l64-172 64 172v1110z" opacity="0.72"/>
    <path d="M580 2380V1500l62-160 62 160v880z" opacity="0.62"/>
    <path d="M1368 2380V1350l68-174 68 174v1030z" opacity="0.62"/>
  </g>

  <g filter="url(#frostGlow)" fill="none" stroke-linecap="round">
    <path d="M1062 830h350M1010 1048h430M954 1290h512M904 1550h612" stroke="#dff8ff" stroke-opacity="0.32" stroke-width="8"/>
    <path d="M1178 604v1420M1340 836v1300M965 1020v1030" stroke="#b7eaff" stroke-opacity="0.24" stroke-width="5"/>
    <circle cx="1248" cy="712" r="76" stroke="#e8fbff" stroke-opacity="0.58" stroke-width="7"/>
    <path d="M1248 596v232M1132 712h232M1166 630l164 164M1330 630l-164 164" stroke="#e8fbff" stroke-opacity="0.45" stroke-width="5"/>
  </g>

  <g opacity="0.42" fill="none" stroke="#d7f6ff" stroke-width="5">
    <path d="M0 2140c262-230 402-266 666-152 204 88 418 74 716-96 104-60 172-84 218-100"/>
    <path d="M80 2256c296-126 498-138 774-56 278 84 494 58 746-82"/>
    <path d="M360 2068l250 92-102 62 234 74M1110 2024l-210 94 140 54-270 94"/>
  </g>
</svg>
