<svg xmlns="http://www.w3.org/2000/svg" viewBox="0 0 1600 2400" role="img" aria-label="Quiet glacial citadel scene with ice spires held to the page edges">
  <defs>
    <linearGradient id="ice" x1="0" x2="1" y1="0" y2="1">
      <stop offset="0" stop-color="#f4fcff" stop-opacity="0.92"/>
      <stop offset="0.36" stop-color="#9bdcff" stop-opacity="0.82"/>
      <stop offset="0.74" stop-color="#356ea9" stop-opacity="0.76"/>
      <stop offset="1" stop-color="#0a2448" stop-opacity="0.88"/>
    </linearGradient>
    <linearGradient id="deepIce" x1="0" x2="1" y1="0" y2="1">
      <stop offset="0" stop-color="#123761"/>
      <stop offset="1" stop-color="#06111f"/>
    </linearGradient>
    <linearGradient id="aurora" x1="0" x2="1" y1="0" y2="0">
      <stop offset="0" stop-color="#7dfff0" stop-opacity="0"/>
      <stop offset="0.28" stop-color="#7dfff0" stop-opacity="0.42"/>
      <stop offset="0.68" stop-color="#6ebaff" stop-opacity="0.32"/>
      <stop offset="1" stop-color="#7dfff0" stop-opacity="0"/>
    </linearGradient>
    <filter id="frostGlow" x="-25%" y="-25%" width="150%" height="150%">
      <feGaussianBlur stdDeviation="7" result="blur"/>
      <feColorMatrix in="blur" type="matrix" values="0.5 0 0 0 0.08 0 1.12 0 0 0.24 0 0 1.45 0 0.36 0 0 0 0.55 0" result="glow"/>
      <feMerge><feMergeNode in="glow"/><feMergeNode in="SourceGraphic"/></feMerge>
    </filter>
  </defs>
  <rect width="1600" height="2400" fill="transparent"/>
  <g filter="url(#frostGlow)" opacity="0.58">
    <path d="M0 280c236-154 400-154 584 0 168 140 300 142 476 8 180-136 344-128 540 24v270c-220-132-396-124-528 22-150 166-330 154-542-36C390 442 218 444 0 574z" fill="url(#aurora)"/>
  </g>
  <g opacity="0.9">
    <path d="M0 2400V900l120-320 118 320v1500z" fill="url(#ice)"/>
    <path d="M166 2400V1050l88-250 88 250v1350z" fill="url(#deepIce)" opacity="0.74"/>
    <path d="M320 2400V1240l70-200 70 200v1160z" fill="url(#ice)" opacity="0.64"/>
    <path d="M1600 2400V760l-134-360-132 360v1640z" fill="url(#ice)"/>
    <path d="M1330 2400V1010l-92-260-92 260v1390z" fill="url(#deepIce)" opacity="0.78"/>
    <path d="M1138 2400V1260l-74-210-74 210v1140z" fill="url(#ice)" opacity="0.62"/>
  </g>
  <g opacity="0.48" fill="#e7fbff">
    <path d="M84 1018l84-80-28 136z"/>
    <path d="M1458 846l-96-92 32 152z"/>
    <path d="M276 1372l62-56-18 100z"/>
    <path d="M1192 1348l-64-58 18 106z"/>
  </g>
  <g filter="url(#frostGlow)" opacity="0.68" fill="#e8fbff">
    <path d="M394 474l16 42 42 16-42 16-16 42-16-42-42-16 42-16z"/>
    <path d="M1218 526l14 36 36 14-36 14-14 36-14-36-36-14 36-14z"/>
    <path d="M518 930l10 28 28 10-28 10-10 28-10-28-28-10 28-10z"/>
  </g>
</svg>
