<svg xmlns="http://www.w3.org/2000/svg" viewBox="0 0 1600 2400" role="img" aria-label="Quiet molten base and orange accent wash">
  <defs>
    <linearGradient id="ember" x1="0" x2="0" y1="0" y2="1">
      <stop offset="0" stop-color="#ff5a12" stop-opacity="0.38"/>
      <stop offset="0.46" stop-color="#ff5a12" stop-opacity="0.16"/>
      <stop offset="1" stop-color="#130503" stop-opacity="0"/>
    </linearGradient>
    <radialGradient id="base" cx="50%" cy="48%" r="72%">
      <stop offset="0" stop-color="#120503" stop-opacity="0.18"/>
      <stop offset="0.58" stop-color="#070302" stop-opacity="0.32"/>
      <stop offset="1" stop-color="#020202" stop-opacity="0"/>
    </radialGradient>
    <filter id="softAccent" x="-25%" y="-25%" width="150%" height="150%">
      <feGaussianBlur stdDeviation="12"/>
    </filter>
  </defs>
  <rect width="1600" height="2400" fill="transparent"/>
  <rect width="1600" height="2400" fill="url(#base)"/>
  <g filter="url(#softAccent)" opacity="0.78">
    <path d="M0 0h136c-42 270-42 540 0 810 40 252 34 472-18 660-56 204-52 410 12 618 30 98 40 202 22 312H0z" fill="url(#ember)"/>
    <path d="M1600 0h-136c42 270 42 540 0 810-40 252-34 472 18 660 56 204 52 410-12 618-30 98-40 202-22 312h152z" fill="url(#ember)"/>
    <path d="M0 2230c256-58 492-62 708-12 116 28 228 28 336 0 168-42 354-34 556 24v158H0z" fill="#ff5a12" opacity="0.1"/>
  </g>
</svg>
