<svg xmlns="http://www.w3.org/2000/svg" viewBox="0 0 1600 2400" role="img" aria-label="Quiet molten forge scene with lava and forge metal held to the page edges">
  <defs>
    <linearGradient id="lava" x1="0" x2="0" y1="0" y2="1">
      <stop offset="0" stop-color="#fff0a2"/>
      <stop offset="0.2" stop-color="#ffb23a"/>
      <stop offset="0.58" stop-color="#ff5d09"/>
      <stop offset="1" stop-color="#841100"/>
    </linearGradient>
    <linearGradient id="iron" x1="0" x2="1" y1="0" y2="1">
      <stop offset="0" stop-color="#3b3126"/>
      <stop offset="0.46" stop-color="#0a0908"/>
      <stop offset="1" stop-color="#2c160d"/>
    </linearGradient>
    <linearGradient id="heat" x1="0" x2="1" y1="0" y2="0">
      <stop offset="0" stop-color="#ff6a12" stop-opacity="0.48"/>
      <stop offset="0.5" stop-color="#ffd06a" stop-opacity="0"/>
      <stop offset="1" stop-color="#ff6a12" stop-opacity="0.48"/>
    </linearGradient>
    <filter id="softHeat" x="-25%" y="-25%" width="150%" height="150%">
      <feGaussianBlur stdDeviation="9" result="blur"/>
      <feColorMatrix in="blur" type="matrix" values="1.5 0 0 0 0.18 0 0.55 0 0 0.04 0 0 0.12 0 0 0 0 0 0.58 0" result="glow"/>
      <feMerge><feMergeNode in="glow"/><feMergeNode in="SourceGraphic"/></feMerge>
    </filter>
  </defs>
  <rect width="1600" height="2400" fill="transparent"/>
  <path d="M0 0h212c-54 300-72 586-52 858 18 240 72 452 36 690-30 196-94 382-82 574 6 102 28 192 62 278H0z" fill="url(#iron)" opacity="0.78"/>
  <path d="M1600 0h-214c64 292 86 578 64 860-18 232-78 442-42 690 30 202 92 382 78 574-8 102-30 192-64 276h178z" fill="url(#iron)" opacity="0.78"/>
  <path d="M0 0h1600v520c-174-74-314-68-430 16-178 128-330 126-496-8-186-150-382-154-674-16z" fill="url(#heat)" opacity="0.16"/>
  <g filter="url(#softHeat)" opacity="0.9">
    <path d="M82 0c18 200 48 348 90 444 48 110 26 224-66 344 86 126 106 248 60 366-62 158-44 300 54 426-118 162-140 306-66 432 54 92 66 222 36 388H0V0z" fill="url(#lava)"/>
    <path d="M1518 0c-18 200-48 348-90 444-48 110-26 224 66 344-86 126-106 248-60 366 62 158 44 300-54 426 118 162 140 306 66 432-54 92-66 222-36 388h190V0z" fill="url(#lava)"/>
    <path d="M0 2210c250-92 470-102 660-30 162 62 312 62 452 0 150-66 312-62 488 12v208H0z" fill="url(#lava)" opacity="0.82"/>
  </g>
  <g opacity="0.76">
    <path d="M106 148h210v92H142z" fill="#0c0a08"/>
    <path d="M1284 148h210l-36 92h-174z" fill="#0c0a08"/>
    <path d="M84 1940h344l-58 96H128z" fill="#17100b" stroke="#ff7a15" stroke-opacity="0.34" stroke-width="6"/>
    <path d="M1190 1888h284l-52 92h-232z" fill="#17100b" stroke="#ff7a15" stroke-opacity="0.34" stroke-width="6"/>
    <path d="M1338 1620h42l46 268h-134z" fill="#1d130e" stroke="#ffb347" stroke-opacity="0.3" stroke-width="5"/>
  </g>
  <g filter="url(#softHeat)" opacity="0.74" fill="#ffd06a">
    <path d="M282 540l16 34 34 16-34 16-16 34-16-34-34-16 34-16z"/>
    <path d="M1338 618l14 30 30 14-30 14-14 30-14-30-30-14 30-14z"/>
    <path d="M246 1320l12 26 26 12-26 12-12 26-12-26-26-12 26-12z"/>
    <path d="M1396 1404l12 26 26 12-26 12-12 26-12-26-26-12 26-12z"/>
  </g>
</svg>
