<svg xmlns="http://www.w3.org/2000/svg" viewBox="0 0 1600 2400" role="img" aria-label="Molten forge scene with lava channels, sword, anvil, and circular forge markings">
  <defs>
    <radialGradient id="emberGlow" cx="50%" cy="76%" r="55%">
      <stop offset="0" stop-color="#ffb347" stop-opacity="0.95"/>
      <stop offset="0.26" stop-color="#ff6a12" stop-opacity="0.72"/>
      <stop offset="0.68" stop-color="#2a0b03" stop-opacity="0.2"/>
      <stop offset="1" stop-color="#000" stop-opacity="0"/>
    </radialGradient>
    <linearGradient id="lava" x1="0" x2="0" y1="0" y2="1">
      <stop offset="0" stop-color="#fff1a8"/>
      <stop offset="0.18" stop-color="#ffb12f"/>
      <stop offset="0.58" stop-color="#ff5b09"/>
      <stop offset="1" stop-color="#801000"/>
    </linearGradient>
    <linearGradient id="metal" x1="0" x2="1" y1="0" y2="1">
      <stop offset="0" stop-color="#4b4437"/>
      <stop offset="0.35" stop-color="#141414"/>
      <stop offset="0.66" stop-color="#30251a"/>
      <stop offset="1" stop-color="#090909"/>
    </linearGradient>
    <filter id="hot" x="-30%" y="-30%" width="160%" height="160%">
      <feGaussianBlur stdDeviation="8" result="blur"/>
      <feColorMatrix in="blur" type="matrix" values="1.8 0 0 0 0.25 0 0.7 0 0 0.08 0 0 0.15 0 0 0 0 0 0.78 0" result="glow"/>
      <feMerge><feMergeNode in="glow"/><feMergeNode in="SourceGraphic"/></feMerge>
    </filter>
    <pattern id="stoneLines" width="92" height="92" patternUnits="userSpaceOnUse">
      <path d="M0 44H92M46 0V92" stroke="#ff7a15" stroke-opacity="0.08" stroke-width="2"/>
      <path d="M0 0L92 92M92 0L0 92" stroke="#ffd06a" stroke-opacity="0.035" stroke-width="1"/>
    </pattern>
  </defs>
  <rect width="1600" height="2400" fill="transparent"/>
  <rect x="0" y="0" width="1600" height="2400" fill="url(#stoneLines)" opacity="0.68"/>
  <ellipse cx="800" cy="1640" rx="760" ry="520" fill="url(#emberGlow)" opacity="0.78"/>

  <g filter="url(#hot)" opacity="0.92">
    <path d="M114 0v365l42 58-38 92 44 80-54 126 38 104-48 172 66 102-44 184 38 108-54 204 48 124v681" fill="none" stroke="url(#lava)" stroke-width="24" stroke-linecap="round" stroke-linejoin="round"/>
    <path d="M1486 0v346l-48 78 42 91-52 118 42 94-64 166 58 130-42 174 56 122-52 226 50 135v700" fill="none" stroke="url(#lava)" stroke-width="24" stroke-linecap="round" stroke-linejoin="round"/>
    <path d="M140 2025h1320M318 2180h964M800 1720v640" stroke="url(#lava)" stroke-width="16" stroke-linecap="round"/>
  </g>

  <g fill="none" stroke-linecap="round" opacity="0.76">
    <circle cx="800" cy="318" r="112" stroke="#ffb347" stroke-opacity="0.55" stroke-width="5"/>
    <circle cx="800" cy="318" r="190" stroke="#ff6a12" stroke-opacity="0.38" stroke-width="4"/>
    <circle cx="800" cy="318" r="276" stroke="#ffb347" stroke-opacity="0.28" stroke-width="3"/>
    <circle cx="800" cy="318" r="366" stroke="#ff6a12" stroke-opacity="0.24" stroke-width="3"/>
    <path d="M800 26v584M508 318h584" stroke="#ffd06a" stroke-opacity="0.24" stroke-width="3"/>
  </g>

  <g opacity="0.88">
    <path d="M742 625h116l-24 1044h-68z" fill="url(#metal)" stroke="#f6b24c" stroke-opacity="0.48" stroke-width="5"/>
    <path d="M800 458l46 110-46 83-46-83z" fill="#1c1712" stroke="#ffd06a" stroke-opacity="0.62" stroke-width="6"/>
    <path d="M588 1652h424l-72 96H660z" fill="#15110e" stroke="#f06a13" stroke-opacity="0.5" stroke-width="5"/>
    <path d="M700 725h200l94 54-94 54H700l-94-54z" fill="#211914" stroke="#ff9a24" stroke-opacity="0.44" stroke-width="5"/>
    <path d="M760 1748h80l64 144H696z" fill="#2a1910" stroke="#ff7a15" stroke-opacity="0.5" stroke-width="5"/>
  </g>

  <g filter="url(#hot)" opacity="0.86">
    <path d="M540 1888c120 52 397 50 520 0" fill="none" stroke="#ff7616" stroke-width="8" stroke-linecap="round"/>
    <ellipse cx="800" cy="2048" rx="436" ry="112" fill="none" stroke="#ff9b24" stroke-opacity="0.44" stroke-width="7"/>
    <ellipse cx="800" cy="2048" rx="286" ry="68" fill="none" stroke="#ffd06a" stroke-opacity="0.24" stroke-width="4"/>
    <path d="M292 2048h1016M800 1936v224" stroke="#ff6a12" stroke-opacity="0.32" stroke-width="5"/>
  </g>

  <g opacity="0.38" stroke="#ffb347" stroke-width="3" fill="none">
    <path d="M205 540l86 82-64 68 84 82-88 122M1390 530l-78 92 66 64-82 94 74 116"/>
    <path d="M386 1108l94 74-50 78 78 72M1216 1092l-92 92 54 72-86 84"/>
  </g>
</svg>
