<svg xmlns="http://www.w3.org/2000/svg" viewBox="0 0 1600 2400" role="img" aria-label="Verdant hollow scene with leaves, moss, forest opening, vines, and stream">
  <defs>
    <radialGradient id="forestLight" cx="50%" cy="23%" r="52%">
      <stop offset="0" stop-color="#efff9a" stop-opacity="0.82"/>
      <stop offset="0.28" stop-color="#9ccc3a" stop-opacity="0.46"/>
      <stop offset="0.72" stop-color="#19320d" stop-opacity="0.2"/>
      <stop offset="1" stop-color="#000" stop-opacity="0"/>
    </radialGradient>
    <linearGradient id="leaf" x1="0" x2="1" y1="0" y2="1">
      <stop offset="0" stop-color="#eaff8b"/>
      <stop offset="0.42" stop-color="#75a829"/>
      <stop offset="1" stop-color="#14350e"/>
    </linearGradient>
    <linearGradient id="bark" x1="0" x2="1" y1="0" y2="0">
      <stop offset="0" stop-color="#0d1307"/>
      <stop offset="0.5" stop-color="#384315"/>
      <stop offset="1" stop-color="#080c05"/>
    </linearGradient>
    <linearGradient id="water" x1="0" x2="0" y1="0" y2="1">
      <stop offset="0" stop-color="#e8ffc0" stop-opacity="0.7"/>
      <stop offset="0.42" stop-color="#8fb84c" stop-opacity="0.52"/>
      <stop offset="1" stop-color="#183f1f" stop-opacity="0.2"/>
    </linearGradient>
    <filter id="leafGlow" x="-30%" y="-30%" width="160%" height="160%">
      <feGaussianBlur stdDeviation="5" result="blur"/>
      <feColorMatrix in="blur" type="matrix" values="0.55 0 0 0 0.1 0 1.25 0 0 0.25 0 0 0.3 0 0 0 0 0 0.62 0" result="glow"/>
      <feMerge><feMergeNode in="glow"/><feMergeNode in="SourceGraphic"/></feMerge>
    </filter>
  </defs>
  <rect width="1600" height="2400" fill="transparent"/>
  <ellipse cx="800" cy="610" rx="680" ry="620" fill="url(#forestLight)" opacity="0.82"/>

  <g opacity="0.82">
    <path d="M0 0c132 316 172 672 116 1068-42 298-84 544-20 842 32 148 78 302 146 490H0z" fill="url(#bark)"/>
    <path d="M1600 0c-154 274-198 642-144 1034 38 276 96 548 18 848-40 156-92 318-158 518h284z" fill="url(#bark)"/>
    <path d="M64 158C286 396 468 462 710 430" fill="none" stroke="#314010" stroke-width="42" stroke-linecap="round"/>
    <path d="M1532 146c-210 248-404 332-690 288" fill="none" stroke="#314010" stroke-width="42" stroke-linecap="round"/>
  </g>

  <g filter="url(#leafGlow)" opacity="0.9">
    <g fill="url(#leaf)">
      <path d="M210 176c74 22 118 72 138 150-84 6-146-40-184-138 20-10 34-14 46-12z"/>
      <path d="M362 264c86 24 138 82 164 176-100 8-172-46-220-154 22-14 40-20 56-22z"/>
      <path d="M1234 188c-78 18-132 68-164 152 88 14 162-28 220-130-18-14-36-20-56-22z"/>
      <path d="M1046 288c-86 24-142 84-168 180 102 8 178-48 228-158-24-14-44-20-60-22z"/>
      <path d="M84 580c104-8 188 30 250 116-96 54-200 30-310-72 18-24 38-38 60-44z"/>
      <path d="M1458 574c-106-2-186 42-242 132 102 48 204 16 302-92-20-22-40-34-60-40z"/>
      <path d="M152 970c82 4 146 42 190 114-78 34-154 8-226-76 12-20 24-32 36-38z"/>
      <path d="M1368 980c-86 0-150 38-196 112 80 36 158 8 234-78-12-20-24-30-38-34z"/>
    </g>
    <g fill="none" stroke="#d8ff7b" stroke-opacity="0.34" stroke-width="4">
      <path d="M210 176c28 54 72 102 138 150M362 264c34 68 86 126 164 176M1234 188c-44 64-100 114-164 152M1046 288c-38 72-94 132-168 180"/>
    </g>
  </g>

  <g opacity="0.72" fill="none" stroke-linecap="round">
    <path d="M220 0c46 294 36 542-30 744-58 176-78 334-22 474" stroke="#789a28" stroke-width="10"/>
    <path d="M1376 0c-62 260-58 508 10 744 58 200 50 362-16 534" stroke="#83a736" stroke-width="10"/>
    <path d="M512 0c-18 254 34 472 154 654" stroke="#a7c94a" stroke-width="6"/>
    <path d="M1068 0c8 232-42 418-150 560" stroke="#a7c94a" stroke-width="6"/>
  </g>

  <g opacity="0.78">
    <path d="M690 1144c96 168 102 360 18 574-82 210-56 400 92 682h-322c-64-262-22-486 126-672 88-112 86-282-8-510z" fill="url(#water)"/>
    <path d="M890 1130c-112 172-130 376-52 612 70 214 28 408-126 658h330c70-254 38-468-94-642-88-116-70-318 50-556z" fill="url(#water)" opacity="0.72"/>
    <path d="M528 1688c182 52 374 48 576-10M494 1896c214 62 420 62 618-4M452 2140c230 72 462 74 696 4" fill="none" stroke="#eaffb0" stroke-opacity="0.28" stroke-width="8" stroke-linecap="round"/>
  </g>

  <g filter="url(#leafGlow)" opacity="0.72" fill="#efff9a">
    <circle cx="436" cy="586" r="5"/><circle cx="518" cy="650" r="3"/><circle cx="1008" cy="570" r="4"/><circle cx="1128" cy="702" r="5"/><circle cx="812" cy="840" r="4"/><circle cx="694" cy="760" r="3"/><circle cx="322" cy="1220" r="4"/><circle cx="1288" cy="1194" r="4"/>
  </g>
</svg>
