<svg xmlns="http://www.w3.org/2000/svg" viewBox="0 0 1600 2400" role="img" aria-label="Quiet verdant hollow scene with forest elements held to the page edges">
  <defs>
    <linearGradient id="leaf" x1="0" x2="1" y1="0" y2="1">
      <stop offset="0" stop-color="#efff9a"/>
      <stop offset="0.44" stop-color="#89ba32"/>
      <stop offset="1" stop-color="#16330d"/>
    </linearGradient>
    <linearGradient id="bark" x1="0" x2="1" y1="0" y2="0">
      <stop offset="0" stop-color="#0a0f05"/>
      <stop offset="0.56" stop-color="#354116"/>
      <stop offset="1" stop-color="#070a04"/>
    </linearGradient>
    <linearGradient id="water" x1="0" x2="1" y1="0" y2="0">
      <stop offset="0" stop-color="#9ccc3a" stop-opacity="0.56"/>
      <stop offset="0.42" stop-color="#efff9a" stop-opacity="0.22"/>
      <stop offset="1" stop-color="#2b6531" stop-opacity="0.46"/>
    </linearGradient>
    <filter id="leafGlow" x="-25%" y="-25%" width="150%" height="150%">
      <feGaussianBlur stdDeviation="6" result="blur"/>
      <feColorMatrix in="blur" type="matrix" values="0.5 0 0 0 0.1 0 1.15 0 0 0.24 0 0 0.26 0 0 0 0 0 0.5 0" result="glow"/>
      <feMerge><feMergeNode in="glow"/><feMergeNode in="SourceGraphic"/></feMerge>
    </filter>
  </defs>
  <rect width="1600" height="2400" fill="transparent"/>
  <path d="M0 0h250c-72 272-94 552-66 840 22 224 68 438 36 676-28 210-86 416-62 626 10 92 36 178 76 258H0z" fill="url(#bark)" opacity="0.86"/>
  <path d="M1600 0h-260c88 272 116 552 84 840-24 224-76 438-42 676 30 210 94 416 70 626-12 92-40 178-82 258h230z" fill="url(#bark)" opacity="0.86"/>
  <g filter="url(#leafGlow)" opacity="0.92" fill="url(#leaf)">
    <path d="M0 94c180 14 330 82 450 204-184 64-334 28-450-108z"/>
    <path d="M86 342c172-12 316 40 432 154-168 76-318 54-450-66z"/>
    <path d="M0 700c148-18 278 22 390 120-142 74-272 60-390-42z"/>
    <path d="M1600 88c-186 16-342 88-468 216 190 66 346 26 468-114z"/>
    <path d="M1518 344c-174-14-322 40-444 158 174 74 326 50 456-72z"/>
    <path d="M1600 720c-154-20-288 24-402 130 148 74 282 56 402-54z"/>
  </g>
  <g opacity="0.74" fill="none" stroke-linecap="round">
    <path d="M170 0c36 260 26 488-30 684-54 188-66 352-36 492" stroke="#789a28" stroke-width="13"/>
    <path d="M1428 0c-46 260-36 488 30 684 56 188 68 352 36 492" stroke="#83a736" stroke-width="13"/>
    <path d="M420 0c-22 220 18 414 120 582" stroke="#a7c94a" stroke-width="7"/>
    <path d="M1180 0c18 218-26 404-132 560" stroke="#a7c94a" stroke-width="7"/>
  </g>
  <g opacity="0.7">
    <path d="M0 2074c240-72 452-72 636 0 162 64 318 58 468-18 152-76 318-76 496 0v344H0z" fill="url(#water)"/>
    <path d="M0 2204c270 38 520 34 750-12 274-56 556-46 850 30v178H0z" fill="#071407" opacity="0.58"/>
  </g>
</svg>
